<?xml version="1.0" encoding="utf-8"?>
<!-- Generator: Adobe Illustrator 27.5.0, SVG Export Plug-In . SVG Version: 6.00 Build 0)  -->
<svg version="1.1" id="Layer_1" xmlns="http://www.w3.org/2000/svg" xmlns:xlink="http://www.w3.org/1999/xlink" x="0px" y="0px"
	 viewBox="0 0 423.6 424" style="enable-background:new 0 0 423.6 424;" xml:space="preserve">
<style type="text/css">
	.st0{fill:#8785A2;}
</style>
<g id="SvgjsG1216" transform="matrix(2.121597899638798,0,0,2.121597899638798,67.85931011486755,-32.59410633078585)">
	<path class="st0" d="M100.8,71.5c0-11.5,0-56.2,0-56.2h-3.1h-63l-6.8,4v81h69.8v-7.2h10C107.8,93.2,100.8,87.6,100.8,71.5z
		 M96.3,59.4h-12V46.6h12V59.4z M67,31.9v12.8H53.6V31.9C53.6,31.9,67,31.9,67,31.9z M69,31.9h13.4v12.8H69V31.9z M39.3,31.9h12.3
		v12.8H39.3V31.9z M39.3,46.6h12.3v12.8H39.3V46.6z M39.3,61.4h12.3v10.2c0,0.9,0,1.8,0.1,2.6H39.3V61.4z M53.6,71.6V61.4H67v10.2
		c0,0.9,0,1.8,0.1,2.6H53.7C53.7,73.3,53.6,72.5,53.6,71.6z M53.6,59.4V46.6H67v12.8H53.6z M69,46.6h13.4v12.8H69V46.6z M96.3,44.7
		h-12V31.9h12V44.7z M51.8,76.1c0.5,6.5,2.1,10.3,3.7,12.5H42.7c-0.3-0.3-0.8-0.9-1.4-2c-0.8-1.7-1.8-4.9-2-10.5H51.8z M58.2,88.6
		c-1.5-1.4-3.7-4.8-4.4-12.5h13.4c0.5,6.5,2.1,10.3,3.7,12.5H58.2z M73.5,88.6c-1.5-1.4-3.7-4.8-4.4-12.5h13.4
		c0.5,6.5,2.1,10.3,3.7,12.5H73.5z M69,74.2c0-0.8-0.1-1.7-0.1-2.6V61.4h13.4v10.2c0,0.9,0,1.8,0.1,2.6H69z M84.3,71.6V61.4h12v10.2
		v2c0,0.2,0,0.4,0,0.7H84.4C84.3,73.3,84.3,72.5,84.3,71.6z M93.1,95.8H32.5V22l2.2-1.3c0,12.4,0,42.8,0,53.5c0,17.7,6.9,19,6.9,19
		h51.5L93.1,95.8L93.1,95.8z M97.7,88.6h-4.6h-4.3c-1.5-1.4-3.7-4.8-4.4-12.5h11.8c0.2,4.8,1,9,2.4,12.5H97.7z"/>
</g>
<g id="SvgjsG1217" transform="matrix(1.8556415463852138,0,0,1.8556415463852138,-3.7112830927704277,146.286951436323)">
	<path class="st0" d="M17.1,43.7c2-2.4,3.1-5.5,4.8-9.5c0.8-1.9,1.9-2.7,3.9-2.7c3.7,0,3.9,2.9,4.6,7.5c0.9,5.5,1.7,15,1.7,20.5
		c0,3.4-0.2,5.6-3,5.6c-2.7,0-3.1-1.8-3.1-4.1v-7.6c0-4.2-0.5-8.6-1.2-13h-0.1c-0.8,2.5-4.3,10.6-7.7,10.6s-6.9-8.1-7.7-10.6H9.3
		c-0.7,4.5-1.2,8.8-1.2,13V61c0,2.3-0.4,4.1-3.1,4.1c-2.8,0-3-2.2-3-5.6C2,54,2.8,44.5,3.7,39c0.8-4.6,0.9-7.5,4.6-7.5
		c1.9,0,3.1,0.8,3.9,2.7C13.9,38.2,15.1,41.3,17.1,43.7z M46.4,50.9h-1.3c-1.3,3.5-2,8.2-2.4,11.4c-0.2,1.8-1.2,2.9-3,2.9
		c-2.6,0-3.1-1.5-3.1-3.9c0-1.5,0.8-10.2,7.2-22.2c2.8-5.2,4.3-7.7,7.7-7.7c2.8,0,4.5,2.5,7.2,7.7c6.3,12,7.6,20.7,7.6,22.2
		c0,2.5-1.2,3.9-2.9,3.9c-2.4,0-3-1.4-3.5-4C58.7,54.1,51.8,50.9,46.4,50.9z M46.6,46h0.6c2.4,0,6.5,0.7,9.7,3.3l0.1-0.1
		c-1.5-4.2-3.3-8.2-5.7-12C49.4,40.1,47.8,43,46.6,46z M71.9,61.8V34.9c0-1.9,1-3.3,3-3.3c2.1,0,3,1.5,3,3.3v6.7
		c1.4,0.2,2.8,0.3,4.2,0.5c2.8-1.1,6.1-3.7,6.9-7.6c0.4-2,1.4-3,3.2-3c1.7,0,2.9,1.3,2.9,3.1c0,3.3-4,8.5-7.5,9.8
		c6,3.1,9.5,10.6,9.5,16.8c0,2.2-0.9,3.8-3,3.8c-2.1,0-2.9-1.5-3-3.7C90.6,52.6,86,47.2,78,46.8v15c0,1.9-1,3.3-3,3.3
		S71.9,63.7,71.9,61.8L71.9,61.8z M108.8,37.2v4.2h11.6c1.6,0,3,0.9,3,2.8s-1.3,2.8-3,2.8h-11.6v12.6h12.1c1.6,0,3,0.9,3,2.8
		c0,1.9-1.3,2.8-3,2.8h-14.3c-3.2,0-4.2-1.6-4.2-4.2V35c0-1.8,1-3.3,2.7-3.3h15.8c1.6,0,3,0.9,3,2.8c0,1.9-1.3,2.8-3,2.8H108.8
		L108.8,37.2z M137.6,61.8c0,1.9-1.1,3.5-3.4,3.5s-3.4-1.5-3.4-3.5s1.1-3.5,3.4-3.5S137.6,59.9,137.6,61.8z M153.4,50.9h-1.3
		c-1.3,3.5-2,8.2-2.4,11.4c-0.2,1.8-1.2,2.9-3,2.9c-2.6,0-3.1-1.5-3.1-3.9c0-1.5,0.8-10.2,7.2-22.2c2.8-5.2,4.3-7.7,7.7-7.7
		c2.8,0,4.5,2.5,7.2,7.7c6.3,12,7.6,20.7,7.6,22.2c0,2.5-1.2,3.9-2.9,3.9c-2.4,0-3-1.4-3.5-4C165.8,54.1,158.9,50.9,153.4,50.9
		L153.4,50.9z M153.6,46h0.6c2.4,0,6.5,0.7,9.7,3.3l0.1-0.1c-1.5-4.2-3.3-8.2-5.7-12C156.5,40.1,154.9,43,153.6,46z M179,61.8V34.3
		c0-1.5,1-2.6,3-2.6h12.8c5,0,7.6,2.8,7.6,6.9c0,6.3-5.3,10-17.4,13.3v10c0,1.8-1,3.3-3,3.3S179,63.7,179,61.8L179,61.8z
		 M185.1,36.9V46c3.2-0.7,11.3-4.1,11.3-7c0-1.3-0.7-2.1-4.3-2.1C192.1,36.9,185.1,36.9,185.1,36.9z M206.7,61.8V34.3
		c0-1.5,1-2.6,3-2.6h12.8c5,0,7.6,2.8,7.6,6.9c0,6.3-5.3,10-17.4,13.3v10c0,1.8-1,3.3-3,3.3S206.7,63.7,206.7,61.8L206.7,61.8z
		 M212.8,36.9V46c3.2-0.7,11.3-4.1,11.3-7c0-1.3-0.7-2.1-4.3-2.1C219.9,36.9,212.8,36.9,212.8,36.9z"/>
</g>
</svg>
