<svg xmlns="http://www.w3.org/2000/svg" viewBox="0 0 591.95 178.99"><defs><style>.cls-1{fill:#c6c6c6;}.cls-2{fill:#1d1d1b;}</style></defs><g id="Capa_2" data-name="Capa 2"><g id="Capa_1-2" data-name="Capa 1"><path class="cls-1" d="M109.94,178.1a1.36,1.36,0,0,1-.31-.89V144.07a1.31,1.31,0,0,1,.31-.91,1,1,0,0,1,.74-.36h4.52a1.52,1.52,0,0,1,1.46,1.12L124,160l7.37-16.06a1.54,1.54,0,0,1,1.47-1.12h4.47a1,1,0,0,1,.78.36,1.31,1.31,0,0,1,.31.91v33.14a1.31,1.31,0,0,1-.31.91,1,1,0,0,1-.78.36h-5a1,1,0,0,1-.77-.36,1.31,1.31,0,0,1-.32-.91V158.09l-4.68,10.65c-.37.79-.86,1.18-1.47,1.18h-2.18a1.29,1.29,0,0,1-.88-.31,2.58,2.58,0,0,1-.58-.87l-4.73-10.65v19.12a1.41,1.41,0,0,1-.3.89.9.9,0,0,1-.75.38h-5A1,1,0,0,1,109.94,178.1Z"/><path class="cls-1" d="M189.74,178.15a1.15,1.15,0,0,1-.27-.74,1.81,1.81,0,0,1,0-.46l9.84-32.72a1.88,1.88,0,0,1,.54-1,1.5,1.5,0,0,1,1.09-.41h6.19a1.5,1.5,0,0,1,1.09.41,2,2,0,0,1,.55,1L218.6,177l.09.46a1.15,1.15,0,0,1-.27.74.83.83,0,0,1-.65.33h-5.15a1.33,1.33,0,0,1-1.34-1.07l-1.64-5.2H198.47l-1.59,5.2a1.37,1.37,0,0,1-1.39,1.07h-5.15A.77.77,0,0,1,189.74,178.15ZM208,164.87l-3.89-13.46-3.9,13.46Z"/><path class="cls-1" d="M270,178.1a1.36,1.36,0,0,1-.31-.89V144.07a1.31,1.31,0,0,1,.31-.91,1,1,0,0,1,.74-.36H276a.91.91,0,0,1,.75.36,1.35,1.35,0,0,1,.3.91v11.32l7.74-11.62a1.71,1.71,0,0,1,1.64-1h6a.76.76,0,0,1,.63.33,1.18,1.18,0,0,1,.25.74,1.41,1.41,0,0,1-.12.61l-10.05,15.4L294,176.8a.94.94,0,0,1,.17.61,1.24,1.24,0,0,1-.25.74.77.77,0,0,1-.63.33h-6.24a2,2,0,0,1-1.67-1l-8.29-12.59v12.34a1.35,1.35,0,0,1-.3.91.91.91,0,0,1-.75.36h-5.27A1,1,0,0,1,270,178.1Z"/><path class="cls-1" d="M345.51,178.1a1.42,1.42,0,0,1-.31-.89V144.07a1.35,1.35,0,0,1,.31-.91,1,1,0,0,1,.74-.36H365.8a.91.91,0,0,1,.75.36,1.34,1.34,0,0,1,.29.91v4.79a1.43,1.43,0,0,1-.29.9.9.9,0,0,1-.75.38H352.44V157h12.44a.91.91,0,0,1,.75.38,1.49,1.49,0,0,1,.29.95v4.43a1.38,1.38,0,0,1-.29.89.89.89,0,0,1-.75.38H352.44v7.09h13.69a.94.94,0,0,1,.76.36,1.42,1.42,0,0,1,.29.91v4.8a1.46,1.46,0,0,1-.29.89.93.93,0,0,1-.76.38H346.25A1,1,0,0,1,345.51,178.1Z"/><path class="cls-1" d="M422.75,175.47q-3.31-3.51-3.32-10.6v-20.8a1.31,1.31,0,0,1,.31-.91.94.94,0,0,1,.73-.36h5.4a1,1,0,0,1,.78.36,1.31,1.31,0,0,1,.31.91v20.75a8.07,8.07,0,0,0,1.28,5,4.91,4.91,0,0,0,7.39,0,8,8,0,0,0,1.3-4.94V144.07a1.31,1.31,0,0,1,.31-.91.94.94,0,0,1,.73-.36h5.45a.94.94,0,0,1,.75.36,1.4,1.4,0,0,1,.29.91v20.8q0,7.08-3.33,10.6T432,179Q426.08,179,422.75,175.47Z"/><path class="cls-1" d="M498.07,178.1a1.37,1.37,0,0,1-.32-.89V144.07a1.31,1.31,0,0,1,.32-.91.94.94,0,0,1,.73-.36h11.72q5.37,0,8.44,3t3.08,8.76q0,5.72-3.06,8.59T510.52,166h-5v11.17a1.31,1.31,0,0,1-.31.91,1,1,0,0,1-.78.36H498.8A.93.93,0,0,1,498.07,178.1ZM510.31,159a3.7,3.7,0,0,0,2.89-1.15,4.85,4.85,0,0,0,1-3.39,5.31,5.31,0,0,0-1-3.34,3.55,3.55,0,0,0-3-1.25h-4.89V159Z"/><path class="cls-2" d="M174.06,98.05a3,3,0,0,0-2.47-.06.38.38,0,0,1-.17.11A18.22,18.22,0,0,0,169,99.29q-4.22,2.73-8.3,5.5l-2.27,1.59c-.49.34-1,.68-1.42,1a.17.17,0,0,1-.12.06h-.28c-.34.08-.44,0-.28-.34.34-.49.66-1,1-1.48s.53-.85.8-1.3l1-1.59q1.42-2.16,2.73-4.37a1.72,1.72,0,0,0,.17-1.56,2.64,2.64,0,0,0-1.19-1.4,1,1,0,0,0-.39-.14.36.36,0,0,0-.34.09,2.75,2.75,0,0,0-1,.79q-3.25,4.47-6.5,9h-.1a48.22,48.22,0,0,0-5.79,2.72A89.75,89.75,0,0,1,132.28,113c-5.9,1.44-10,2.15-12.15,2.15a11.75,11.75,0,0,1-2.39-.23,1.5,1.5,0,0,1-1.19-1.48,6.49,6.49,0,0,1,1.31-2.89c.3-.42.8-1,1.48-1.82a14.69,14.69,0,0,1,2.9-2.32h.17a5.69,5.69,0,0,0,2.84.62,21.42,21.42,0,0,0,4.26-.56,26.86,26.86,0,0,0,3.4-1.13,27.25,27.25,0,0,0,3.64-1.93,2.77,2.77,0,0,0,1.25-2.21V101a4.3,4.3,0,0,0-1-2.5,4.77,4.77,0,0,0-1.53-1.2,4.62,4.62,0,0,0-1.7-.39q-4,0-9.89,3.05a32.36,32.36,0,0,0-5.17,3.69,22,22,0,0,0-2,2,8.49,8.49,0,0,0-2.91,6.08v.11a7.17,7.17,0,0,0,1.14,3.75,6.7,6.7,0,0,0,1.64,1.82,7.91,7.91,0,0,0,5.22,1.48h.17a27.75,27.75,0,0,0,4.89-.5,39,39,0,0,0,5.05-1.25c2.13-.6,4.11-1.26,6-2a71.89,71.89,0,0,0,12-5.75l-6.68,9.22a13.61,13.61,0,0,0-1.31,2,2.49,2.49,0,0,0,.45,2.84,2.33,2.33,0,0,0,1.16.74,1.28,1.28,0,0,0,1.17-.23c1.14-1,2.23-2,3.3-3.06a144.89,144.89,0,0,1,18.64-15,7,7,0,0,1,1.13-.57,1.2,1.2,0,0,0,.34-.17c.31-.11.42,0,.34.29a7.76,7.76,0,0,1-.28.9c-.19.5-.36,1-.51,1.48a2.65,2.65,0,0,0-.06,1.25,9,9,0,0,0,.91,2,4.06,4.06,0,0,0,1.64,1.5,2.86,2.86,0,0,0,1.42.23l.37,0a3,3,0,0,0,.77-.14l-1.48-2.38a1.71,1.71,0,0,1,.29-1.71q1.31-1.81,2.56-3.69c.26-.34.53-.7.79-1.08.08-.11.17-.24.29-.39.3-.42.58-.85.85-1.31a2.41,2.41,0,0,0,.06-2.1A3.33,3.33,0,0,0,174.06,98.05Zm-46.42,4.33q4.77-2,6.42-2c.26,0,.39.1.39.17,0,.23-.3.59-.91,1.08a15.23,15.23,0,0,1-2.72,1.3,20.42,20.42,0,0,1-5.34,1.3c-.23,0-.34,0-.34-.17C125.14,103.72,126,103.17,127.64,102.38Z"/><path class="cls-2" d="M400.86,88.92a2.51,2.51,0,0,0,.74,1.45,1.22,1.22,0,0,0,.56.22,2.85,2.85,0,0,1,.46.17l1.25-.68c1.25-.64,2.52-1.32,3.8-2a.49.49,0,0,0,.29-.28,2.54,2.54,0,0,0,.17-.46,2.05,2.05,0,0,0-.74-2,1.79,1.79,0,0,0-2-.51,10.46,10.46,0,0,0-4.09,2.78A1.62,1.62,0,0,0,400.86,88.92Z"/><path class="cls-2" d="M467.28,112.52a3,3,0,0,0,1.42.23h.23a.56.56,0,0,0,.51-.32.69.69,0,0,0,.06-.59l-.12-.23A2.15,2.15,0,0,0,469,111a1.81,1.81,0,0,1-.34-2.67q1.32-1.82,2.56-3.69c.27-.37.53-.75.8-1.13a1.44,1.44,0,0,0,.28-.4c.31-.41.61-.87.91-1.36a2.63,2.63,0,0,0,.06-2.1,3.55,3.55,0,0,0-1.73-2,2.82,2.82,0,0,0-2.47,0,.59.59,0,0,1-.23,0c-.83.38-1.64.8-2.44,1.25q-4.2,2.73-8.41,5.56c-.76.53-1.51,1.08-2.27,1.64l-1.48,1s0,.06-.08.06h-.32c-.34.08-.41,0-.22-.34.3-.49.62-1,1-1.48s.53-.88.8-1.3.7-1.12,1.08-1.65l2.73-4.42a1.9,1.9,0,0,0,.17-1.62,2.69,2.69,0,0,0-1.19-1.4,1,1,0,0,0-.4-.14.82.82,0,0,0-.39,0,3.46,3.46,0,0,0-1,.85l-7,9.61a59.12,59.12,0,0,0-5.71,2.7,91,91,0,0,1-14.49,5.16q-8.87,2.14-12.16,2.14a11,11,0,0,1-2.38-.23,1.48,1.48,0,0,1-1.19-1.47,6.4,6.4,0,0,1,1.31-2.9c.3-.41.79-1,1.47-1.81a15.23,15.23,0,0,1,2.9-2.33h.17a5.61,5.61,0,0,0,2.84.63,21.57,21.57,0,0,0,4.26-.57,24.18,24.18,0,0,0,3.41-1.13,28.53,28.53,0,0,0,3.64-1.93,2.77,2.77,0,0,0,1.25-2.21v-.23a4.32,4.32,0,0,0-1-2.5,5,5,0,0,0-1.53-1.19,4.5,4.5,0,0,0-1.71-.4q-4,0-9.88,3.06a31.83,31.83,0,0,0-5.17,3.68,21,21,0,0,0-2.05,2q-.27.27-.51.54L409.59,108q-3.93,1.93-8.92,4.14a84.57,84.57,0,0,1-10.4,3.8q-2.38.68-4.88,1.24a7,7,0,0,1-1.31.11h-.51A.69.69,0,0,1,383,117a.68.68,0,0,1-.17-.57A15.48,15.48,0,0,1,384.6,113a34.28,34.28,0,0,1,2.33-3.06,2.63,2.63,0,0,0,.28-.34,116.36,116.36,0,0,1,8-8.8c1-1.06.87-2.08-.34-3.07a1.73,1.73,0,0,0-.88-.31,1.31,1.31,0,0,0-.82.2,1.83,1.83,0,0,0-.29.23,14.27,14.27,0,0,0-1.19.85,70.47,70.47,0,0,0-7.15,7.52,6.18,6.18,0,0,0-.64.31,82.89,82.89,0,0,1-8.35,4.28q-5.06,2.3-10.08,4a42.68,42.68,0,0,1-8.21,2.12,1,1,0,0,1-.82-.37.68.68,0,0,1-.14-.77l.56-1.19a23.73,23.73,0,0,1,1.71-3.29,82.11,82.11,0,0,1,5.4-7.38q5.34-6.18,10.8-12.25c.53-.61,1.09-1.21,1.65-1.82,1.06-1.17,2.14-2.33,3.24-3.46.61-.6,1.22-1.23,1.82-1.87a3.7,3.7,0,0,1,2.84-1.25l2.62-.11,1.93-.11,4.2-.11c2.27,0,4.54-.09,6.81-.17a4.78,4.78,0,0,0,1.31-.28,1,1,0,0,0,.2-.37,1.27,1.27,0,0,0,.08-.42,3,3,0,0,0-2.32-2,10.85,10.85,0,0,0-2.27-.12c-1.33,0-2.65.09-4,.17l-2.44.11h-.17c-.87,0-1.72,0-2.56,0a.54.54,0,0,1-.34-.15,1.18,1.18,0,0,1-.28-.31.31.31,0,0,1,0-.23,1,1,0,0,1,.09-.22,1.74,1.74,0,0,1,.28-.34,8.06,8.06,0,0,1,1.19-1.36q4.89-4.6,9.78-9.14c.87-.79,1.74-1.61,2.62-2.44l.79-.68c.53-.49,1-1,1.54-1.47a1.54,1.54,0,0,0,.28-1.71,2,2,0,0,0-1.13-1.16,1.45,1.45,0,0,0-1.42.25q-1.14.8-2.22,1.65-8.13,6.69-15.63,14.12c-.23.23-.45.46-.68.68-.65.65-1.29,1.27-1.94,1.88a3,3,0,0,1-2,.9,5.35,5.35,0,0,1-.79.06h-1c-1.1.07-2.19.13-3.29.16q-5.91.22-11.81.5a8.22,8.22,0,0,0-1.82.34l-.4.12c-.3.07-.42.32-.34.73a2,2,0,0,0,1.82,1.77c1.74.11,3.5.19,5.28.23h2V84h6.42l.14,0,.14.06s.06,0,.06.08a.16.16,0,0,0,0,.11v.43a.83.83,0,0,1,0,.31l-1.71,2a.18.18,0,0,0-.11,0l-3.24,3.69q-3.65,3.92-7.11,7.94-3.19,3.83-6.07,7.85c-1.32.43-2.88,1-4.73,1.66-2.61,1-5.07,1.89-7.38,2.77s-3.81,1.49-4.49,1.79H340a5.39,5.39,0,0,1-.85.36,9.85,9.85,0,0,1-1.14.34c-.38.1-.64.1-.77,0s-.06-.35.2-.76q1.37-1.87,2.73-4.09t2.62-4a2.8,2.8,0,0,0-.17-3.41,1.75,1.75,0,0,0-2.73-.46c-.72.57-1.42,1.16-2.1,1.76a81.57,81.57,0,0,1-13.58,9.25c-1.29.68-2.61,1.3-4,1.87-.49.19-1,.39-1.42.62a3.21,3.21,0,0,1-1.36.28,2.21,2.21,0,0,1-1.25-.23.66.66,0,0,1-.34-.56,1.24,1.24,0,0,1,.17-.63,8.94,8.94,0,0,0,.51-1.08,22.45,22.45,0,0,1,1.88-3.35,33.88,33.88,0,0,1,6.6-7.54s0-.06,0-.06a2.7,2.7,0,0,0,.85-.91,1.64,1.64,0,0,0,.12-.65,1,1,0,0,0-.17-.6c-.91-1.62-2-1.93-3.29-.91a30.47,30.47,0,0,0-6.65,7.11c-.59,0-1.36,0-2.33,0-2.31.09-5.22.38-8.72.84s-7.19,1.09-11,1.84a12.78,12.78,0,0,1-1.3.17h-1a.49.49,0,0,1-.48-.31.64.64,0,0,1,.08-.66q1.32-2,2.62-4.08l5.57-8.74q2.34-3.75,4.44-7.61a3.79,3.79,0,0,0-.22-4.26,2.35,2.35,0,0,0-3.13-.74c-1.13.64-2.27,1.32-3.41,2q-2.43,1.59-4.88,3.23l-5.4,3.58a235.62,235.62,0,0,1-26,15q-5.34,2.55-10.74,4.73a84.06,84.06,0,0,1-11,3.6,39.87,39.87,0,0,1-10.62,1.47,13.36,13.36,0,0,1-5.11-1.2,4.3,4.3,0,0,1-2.67-3.64,14.35,14.35,0,0,1,.06-2.27,21.72,21.72,0,0,1,1-4.34,37.11,37.11,0,0,1,1.77-4.18,43.76,43.76,0,0,1,3.07-5c1.14-1.61,2.31-3.19,3.53-4.74a117.57,117.57,0,0,1,15.63-16,174.28,174.28,0,0,1,16.56-12.65,190.06,190.06,0,0,1,17.82-10.6,115.58,115.58,0,0,1,13.8-6.12,66,66,0,0,1,11.48-3.11,12.45,12.45,0,0,1,7.09.69,4.64,4.64,0,0,1,3.07,4.71,15.54,15.54,0,0,1-.58,4.09c-.6,1.67-1.15,3.33-1.65,5a3.44,3.44,0,0,0,.4,3,.71.71,0,0,0,.34.26,1.29,1.29,0,0,0,.4.08,1.16,1.16,0,0,0,.42-.2,1.14,1.14,0,0,0,.31-.31,6.28,6.28,0,0,0,1.11-1.93q.38-1,.72-2a12.52,12.52,0,0,1,.39-1.31,13.75,13.75,0,0,0,.07-8.46,10.06,10.06,0,0,0-6.58-6.76,13,13,0,0,0-4.18-.69,22.66,22.66,0,0,0-4.4.45,70.37,70.37,0,0,0-16.41,5.27,170.08,170.08,0,0,0-44.27,28.58A113.46,113.46,0,0,0,224.93,90a47,47,0,0,0-5,8.46,32.21,32.21,0,0,0-1.6,5,17.23,17.23,0,0,0-.4,5,11.62,11.62,0,0,0,3.26,7.67,10.86,10.86,0,0,0,7.18,2.9,36,36,0,0,0,10.17-.78,71.6,71.6,0,0,0,7.78-2.27,133.48,133.48,0,0,0,13.92-5.78q6.81-3.28,13.46-7.08,10-5.83,19.72-12.31l3.75-2.38a1,1,0,0,1,.26-.08.66.66,0,0,1,.28,0,.38.38,0,0,1,.2.08,2.18,2.18,0,0,1,.08.4.61.61,0,0,1-.08.4q-5.18,8.06-10.47,16.12l-.34.56a16.17,16.17,0,0,1-2.61,3.29,4.81,4.81,0,0,1-1.71.88,11.46,11.46,0,0,1-1.87.37c-.46.08-.93.17-1.42.28a212.37,212.37,0,0,0-41.36,14.45,119.88,119.88,0,0,0-15.05,8.27,48.16,48.16,0,0,0-7.85,6.07,20.71,20.71,0,0,0-4.94,6.7,12,12,0,0,0-1,8.06,10.48,10.48,0,0,0,6.24,7.62,17.2,17.2,0,0,0,4,1.11,28.5,28.5,0,0,0,4.29.31c.64-.07,1.28-.13,1.93-.16a32,32,0,0,0,4.09-.51A50.34,50.34,0,0,0,248,154.79a97.46,97.46,0,0,0,10.57-8.22,144.73,144.73,0,0,0,16.26-17.42q4-5.16,7.9-10.44l3.41-4.54a3.74,3.74,0,0,1,2.39-1.59c.64-.15,1.91-.4,3.8-.74q3.18-.56,7.47-1.35c2.86-.53,5.64-1.09,8.35-1.7s4.87-1.17,6.6-1.73c-.44.77-.86,1.55-1.23,2.36a7.89,7.89,0,0,0-.69,3.47,5.66,5.66,0,0,0,1.53,3.86,4.13,4.13,0,0,0,3.12,1.65,8.25,8.25,0,0,0,4-.68,70.05,70.05,0,0,0,6.53-3.57q2.57-1.59,5.11-2.89a.2.2,0,0,1,.15-.06.11.11,0,0,1,.11.09.74.74,0,0,1,0,.34,4,4,0,0,1-.28.73c-.16.33-.35.75-.57,1.28a11.65,11.65,0,0,1-.57,1,3.34,3.34,0,0,0-.54,1.51,3.28,3.28,0,0,0,.88,1.84,2.13,2.13,0,0,0,2.38.92,31.69,31.69,0,0,0,3-1.08q8.5-3.52,16.78-7.57l0,0-.57,1.14a7.41,7.41,0,0,0-.8,3.57,5.65,5.65,0,0,0,1.59,4.15,4,4,0,0,0,2.78,1.37,12.15,12.15,0,0,0,4.54-.4c1.33-.41,2.64-.85,3.92-1.3a63.51,63.51,0,0,0,10.17-4.7c1.65-1,3.26-2,4.84-3-.23.4-.47.8-.69,1.22a8.39,8.39,0,0,0-.85,2.56,6,6,0,0,0,.36,2.89,5.57,5.57,0,0,0,1.73,2.39,4.66,4.66,0,0,0,3,1,22.32,22.32,0,0,0,5.4-1.25q3.69-1.18,8.21-3.08t8.75-4c1.37-.68,2.62-1.34,3.76-2a7.08,7.08,0,0,0-.1,1.13v.12a7.24,7.24,0,0,0,1.13,3.75,6.87,6.87,0,0,0,1.65,1.81,8,8,0,0,0,5.22,1.49h.17a26.92,26.92,0,0,0,4.89-.51,37.53,37.53,0,0,0,5.05-1.25q3.18-.9,6-2a71.63,71.63,0,0,0,11.68-5.58L440,118.57a11,11,0,0,0-1.36,2.1,2.46,2.46,0,0,0,.5,2.84,2.23,2.23,0,0,0,1.17.79,1.26,1.26,0,0,0,1.16-.22q1.71-1.53,3.35-3.12a149.8,149.8,0,0,1,19-15.26,5.58,5.58,0,0,1,1.08-.57l.39-.17c.31-.11.42,0,.34.29s-.22.6-.34.9l-.45,1.48a2.19,2.19,0,0,0-.06,1.31,7,7,0,0,0,.88,2A4.69,4.69,0,0,0,467.28,112.52Zm-42.64-9.87q4.77-2,6.42-2c.27,0,.4.1.4.18s-.31.58-.91,1.07a15.29,15.29,0,0,1-2.73,1.31,20.24,20.24,0,0,1-5.34,1.3c-.22,0-.34-.06-.34-.17C422.14,104,423,103.45,424.64,102.65Zm-144.76,13.5q-5,6.81-10.38,13.19a153.83,153.83,0,0,1-11.63,12.23,97.09,97.09,0,0,1-12.38,9.87,49.22,49.22,0,0,1-18.7,7.59,22.89,22.89,0,0,1-3.18.34l-1.42.11a28.77,28.77,0,0,1-3.4-.2,11.07,11.07,0,0,1-3.18-.88l-.4-.12a5.87,5.87,0,0,1-.79-.4q-4.21-2.2-2.33-7.1A20,20,0,0,1,216,144.6a41.21,41.21,0,0,1,6-5.22,103.39,103.39,0,0,1,13.46-8.11q6-3.12,12.16-5.67T260,120.79q9.56-3.41,19.26-6a1.17,1.17,0,0,1,.63.06h.17c.15,0,.2.19.17.45A2,2,0,0,1,279.88,116.15Z"/><path class="cls-2" d="M500.74,99.71a3.58,3.58,0,0,0-1.73-2,2.88,2.88,0,0,0-2.47,0,.49.49,0,0,1-.23.06c-.83.38-1.64.79-2.44,1.25q-4.2,2.72-8.41,5.55c-.76.53-1.52,1.08-2.27,1.65l-1.48,1s0,.06-.09.06h-.31c-.34.07-.41,0-.22-.35q.45-.73,1-1.47c.27-.46.53-.89.8-1.31s.7-1.11,1.08-1.64l2.73-4.43a1.9,1.9,0,0,0,.17-1.62,2.67,2.67,0,0,0-1.19-1.39.87.87,0,0,0-.4-.14.82.82,0,0,0-.39,0,3.31,3.31,0,0,0-1,.85q-8.25,11.34-16.49,22.75a11.66,11.66,0,0,0-1.37,2.1,2.48,2.48,0,0,0,.51,2.84,2.2,2.2,0,0,0,1.17.8,1.27,1.27,0,0,0,1.16-.23c1.14-1,2.25-2.06,3.35-3.12a151.58,151.58,0,0,1,19-15.26,6.14,6.14,0,0,1,1.08-.56,2.9,2.9,0,0,1,.39-.17c.3-.12.42,0,.34.28s-.22.61-.34.91l-.45,1.48a2.08,2.08,0,0,0-.06,1.3,7.13,7.13,0,0,0,.88,2,4.66,4.66,0,0,0,1.67,1.56,2.86,2.86,0,0,0,1.42.23h.23a.56.56,0,0,0,.51-.31.72.72,0,0,0,.06-.6l-.12-.22a2.15,2.15,0,0,0-.34-.57,1.82,1.82,0,0,1-.34-2.67c.87-1.21,1.73-2.44,2.56-3.69l.8-1.14a1.39,1.39,0,0,0,.28-.39c.31-.42.61-.87.91-1.37A2.63,2.63,0,0,0,500.74,99.71Z"/><path class="cls-2" d="M564.33,118.12a3.42,3.42,0,0,1-1.51.39,1.7,1.7,0,0,1-1.33-.8.61.61,0,0,0-.23-.22.21.21,0,0,0,0-.12,9,9,0,0,0-5.34-2.44c-1.06-.12-2.12-.2-3.18-.26a16.14,16.14,0,0,0-3.18.14,22.74,22.74,0,0,1-2.73.17,7,7,0,0,0-.91,0,.41.41,0,0,1-.28-.11.22.22,0,0,0-.17-.06.72.72,0,0,0,.17-.23.88.88,0,0,1,.29-.45c1.06-.68,2.12-1.3,3.18-1.87,1.85-1,3.71-2,5.57-3q4.26-2.26,8.52-4.59a31.21,31.21,0,0,0,3.24-2,.82.82,0,0,0,.22-.17,1.26,1.26,0,0,0,.49-.91,2.12,2.12,0,0,0-.14-1.13A4.39,4.39,0,0,0,563.32,98c-1.28,0-2.57-.06-3.86-.06q-2.61-.06-3.57-.06c-1.48,0-3,.09-4.49.17-2,.11-4,.24-6,.39l-.74,0a5,5,0,0,0-.74.06h-.11l-3.64,3.35a36.71,36.71,0,0,0-3.18,4.51.61.61,0,0,0-.05.12c-.89.43-2,1-3.36,1.67a91.08,91.08,0,0,1-14.49,5.15q-8.87,2.15-12.15,2.15a11.68,11.68,0,0,1-2.39-.23,1.5,1.5,0,0,1-1.19-1.48,6.51,6.51,0,0,1,1.31-2.9c.3-.41.8-1,1.48-1.81a15,15,0,0,1,2.9-2.33h.17a5.55,5.55,0,0,0,2.83.63,22.2,22.2,0,0,0,4.26-.56,25.39,25.39,0,0,0,3.41-1.14,27.78,27.78,0,0,0,3.64-1.92,2.79,2.79,0,0,0,1.25-2.22v-.22a4.3,4.3,0,0,0-1-2.5,4.87,4.87,0,0,0-1.53-1.2,4.7,4.7,0,0,0-1.7-.4q-4,0-9.89,3.06a31.74,31.74,0,0,0-5.17,3.69,22.27,22.27,0,0,0-2,2,8.46,8.46,0,0,0-2.9,6.08v.11a7.24,7.24,0,0,0,1.13,3.75,6.91,6.91,0,0,0,1.65,1.82,8,8,0,0,0,5.22,1.48h.17a26.92,26.92,0,0,0,4.89-.51,38.39,38.39,0,0,0,5.05-1.24q3.18-.92,6-2A69,69,0,0,0,538,108.66l.06,0c.93.12,2.46-.82,4.57-2.83a13.55,13.55,0,0,1,8-3.94l1.08-.11c1-.11,2.06-.2,3.1-.25a15.18,15.18,0,0,1,3.09.14.25.25,0,0,1,.15.09.23.23,0,0,1,.08.14v.25a.25.25,0,0,1-.06.2c-.19.12-.36.23-.51.34-.72.49-1.44,1-2.16,1.36h.06c-2,1.14-4.07,2.25-6.08,3.35q-4,2.1-7.9,4.25-3,1.69-5.85,3.57a7.18,7.18,0,0,0-1.76,1.48,1.5,1.5,0,0,0-.26.57,1.56,1.56,0,0,0,0,.68c.45,2,1.65,2.89,3.58,2.67a21.19,21.19,0,0,0,2.72-.4,89.89,89.89,0,0,1,12.67-1.92,18.67,18.67,0,0,1,4.09.12,3.59,3.59,0,0,0,.62.06,6.12,6.12,0,0,1,1.22.23,2,2,0,0,1,1.05.74,1.48,1.48,0,0,1-.54,1,3.42,3.42,0,0,1-.93.48,4.83,4.83,0,0,0-.86.4,12.28,12.28,0,0,1-1.53.79,7.2,7.2,0,0,0-.91.4,116.94,116.94,0,0,0-16.48,9.86q-2.77,2-5.4,4.26a16.64,16.64,0,0,0-3.75,4.54,3.42,3.42,0,0,0-.17,2.66q1.47,4.32,5.68,3a37.13,37.13,0,0,0,5.9-2.55,66.71,66.71,0,0,0,16.88-13.16c.83-.87,1.64-1.77,2.42-2.72a15.19,15.19,0,0,0,2-3.12,5.62,5.62,0,0,1,1.39-1.76,9.24,9.24,0,0,1,1.91-1.19c3.25-1.44,6-3.46,10.64-5.74,0,0,12.56-7,15.95-11C593.89,103.05,576.86,112.77,564.33,118.12Zm-49.91-15.38q4.79-2,6.42-2c.27,0,.4.09.4.17s-.3.59-.91,1.08a16.15,16.15,0,0,1-2.73,1.3,20.24,20.24,0,0,1-5.34,1.3c-.22,0-.34-.06-.34-.17C511.92,104.08,512.76,103.53,514.42,102.74Zm38.82,26.15a2,2,0,0,0-.08.26.3.3,0,0,1-.14.2q-2.38,1.92-4.44,3.63-2.9,2.49-6,4.74a47.56,47.56,0,0,1-7.59,4.33c-.38.19-.6.12-.68-.22a.24.24,0,0,1,0-.23.62.62,0,0,1,.12-.17,4.7,4.7,0,0,0,.68-.74,22.19,22.19,0,0,1,1.93-1.82,68.87,68.87,0,0,1,6.42-4.73q3.36-2.19,6.82-4.17l.43-.23c.2-.11.45-.23.73-.36s.53-.26.72-.37a1,1,0,0,1,.34-.17,2.76,2.76,0,0,1,.51-.17.58.58,0,0,0,.28-.06A.61.61,0,0,0,553.24,128.89Z"/><path class="cls-2" d="M108.44,76.23A55.39,55.39,0,0,0,92.25,74q10.68-30.79,22.33-51.13,27-.77,55.16-2.67,63.69-4.32,102.08-17.11a1.46,1.46,0,0,0,1.06-1.43A1.51,1.51,0,0,0,272.1.19a1.61,1.61,0,0,0-1.29-.1A287.56,287.56,0,0,1,224.15,11q-25.72,4-53.35,5.9t-54.28,2.74q5.45-8.85,10-12.3a1.65,1.65,0,0,0,.6-1.29,1.75,1.75,0,0,0-.35-1,1.15,1.15,0,0,0-.74-.56l-.48,0a1.51,1.51,0,0,0-1,.32q-5.31,4.05-11.77,15l-26,.71q-29.25.68-50.67,1.94T5.68,27.1C1.9,28.58,0,30.56,0,33.05a5.88,5.88,0,0,0,.46,2.21Q1.62,37.75,8,42.72T24.15,54.56q13.59,9.57,29.08,21.52A252.09,252.09,0,0,1,80.79,100.6c-.22.61-.63,2.2-1.25,4.75q-5.88,23.37-6.45,41.55l0,1.34q0,18.25,7.5,24.49a13.3,13.3,0,0,0,8.71,2.87,14.16,14.16,0,0,0,5.26-1.1q10-4.47,10-22.13a80.9,80.9,0,0,0-2.06-17.67,93,93,0,0,0-5-15.78q-4.05-9.32-13.18-19.15,3.06-11.3,6.85-22.59a54.08,54.08,0,0,1,16.33,2.09,1.35,1.35,0,0,0,.5.09,1.54,1.54,0,0,0,1.53-1.1,2.78,2.78,0,0,0,0-.51A1.5,1.5,0,0,0,108.44,76.23ZM94.56,120.17a88.55,88.55,0,0,1,6.75,31v1a36.65,36.65,0,0,1-1.85,12.22q-2.83,7.88-10.3,8H89a9.69,9.69,0,0,1-6.46-2.13q-6.27-5.2-6.25-21.45,0-17.52,6.4-42.65l.65-2.68A64.71,64.71,0,0,1,94.56,120.17ZM88.88,74c-6.15.25-10.87,1-14.16,2.25a1.41,1.41,0,0,0-1,1.43,1.35,1.35,0,0,0,.83,1.43,2.2,2.2,0,0,0,.78.19,1.52,1.52,0,0,0,.55-.1q4.06-1.51,11.9-1.92-3.28,9.87-6,19.78A265,265,0,0,0,54.41,73Q39.28,61.32,26,51.94q-9.45-6.66-15.62-11.36-7.2-5.46-7.19-7.25c0-1.23,1.21-2.32,3.65-3.27q8.72-3.27,29.89-4.5,20.19-1.17,53.82-2L110.93,23Q99.34,43.85,88.88,74Z"/></g></g></svg>