<?xml version="1.0" encoding="utf-8"?>
<!-- Svg Vector Icons : http://www.onlinewebfonts.com/icon -->
<!DOCTYPE svg PUBLIC "-//W3C//DTD SVG 1.1//EN" "http://www.w3.org/Graphics/SVG/1.1/DTD/svg11.dtd">
<svg version="1.1" xmlns="http://www.w3.org/2000/svg" xmlns:xlink="http://www.w3.org/1999/xlink" x="0px" y="0px" viewBox="0 0 256 256" enable-background="new 0 0 256 256" xml:space="preserve">
<metadata> Svg Vector Icons : http://www.onlinewebfonts.com/icon </metadata>
<g><g><path fill="#000000" d="M180.7,167.2c-9.9,0-17.8-2.3-21.6-5.6c0.8,14.9,3.2,71.2,6,82c0,0,18.4,5.4,37.1,0l6-82C204.5,164.9,192.7,167.2,180.7,167.2z M192.8,228.9c-10.7,3.6-18.1,0-18.1,0c-3.1-29.1-3.8-35.3-6-56.1c3.6,3.2,3.7,5.6,18.1,5.6c4.8,0,8.9-2.1,12.1-5.6C196.6,192.6,192.8,228.9,192.8,228.9z M180.7,161.6h6c9.7-0.5,18.1-6.8,18.1-11.2c0-0.8-5.1-7.1-17.1-7.1V71.5c0.6-0.2,6.8-6.8,6.8-6.8V20.2l-7.9-4.6h-6l-6.6,4.6v44.4c0,0,5.6,6.7,6.6,7.1l0.3,71.5c-12.4,0-18.4,5.9-18.4,7.1C162.6,154.5,168.5,161.6,180.7,161.6z M135,141.8l-2.7-2.7V88.6l-6-4.5c0-12.3,0-68.5,0-68.5s0.6,0-3.5-3.7c-1.4-1.3-3.2-1.9-5.2-1.9c-2.7,0-5.3,1.2-8.7,2.7c-6.7,2-8.8,2.9-13.4,4.1C65.7,25.1,64.9,50.1,64.8,51v30.8l-6.8,6.8v51.3c-4.5,0-10.3,5.8-10.3,10.5v84.2c0,4.7,7.6,11.2,12.1,11.2h72.6c6.1,0,12.1-6.5,12.1-11.2v-84.2C144.4,145.6,139.5,141.8,135,141.8z M129.7,232.1H61.4l-1.6-81.8l11.8-7.1V95.4h6.8c0,0,0-24.7,0-41c0-25.4,34.2-27.3,34.2-27.3v68.4h6.8v47.9l10.3,6.8V232.1L129.7,232.1z"/></g></g>
</svg>